<svg id="图层_1" data-name="图层 1" xmlns="http://www.w3.org/2000/svg" xmlns:xlink="http://www.w3.org/1999/xlink" viewBox="0 0 90 90"><defs><style>.cls-1{fill:url(#linear-gradient);}.cls-2{fill:#fff;stroke:#fff;stroke-miterlimit:10;}</style><linearGradient id="linear-gradient" x1="7" y1="45" x2="83" y2="45" gradientUnits="userSpaceOnUse"><stop offset="0" stop-color="#e92c5d"/><stop offset="1" stop-color="#ff81a6"/></linearGradient></defs><title>画板 9</title><circle class="cls-1" cx="45" cy="45" r="38"/><path class="cls-2" d="M45,67.93A22.93,22.93,0,1,1,67.93,45,23,23,0,0,1,45,67.93Zm0-44A21,21,0,1,0,66,45,21,21,0,0,0,45,24Zm0,0"/><path class="cls-2" d="M45,64.1a19,19,0,0,1-13.51-5.59,1,1,0,0,1,1.35-1.35,17.09,17.09,0,0,0,12.16,5,1,1,0,1,1,0,1.91Zm12.84-5.31a1,1,0,0,1-.68-1.63,17.22,17.22,0,0,0,0-24.32,1,1,0,0,1,1.35-1.35,19.13,19.13,0,0,1,0,27,1,1,0,0,1-.67.28ZM45,54.55A9.55,9.55,0,1,1,54.56,45,9.57,9.57,0,0,1,45,54.55Zm0-17.2A7.64,7.64,0,1,0,52.64,45,7.65,7.65,0,0,0,45,37.36Zm0,0"/><path class="cls-2" d="M43.09,45a1.91,1.91,0,1,0,1-1.66,1.91,1.91,0,0,0-1,1.66Zm0,0"/></svg>