<svg id="图层_1" data-name="图层 1" xmlns="http://www.w3.org/2000/svg" xmlns:xlink="http://www.w3.org/1999/xlink" viewBox="0 0 90 90"><defs><style>.cls-1{fill:url(#linear-gradient);}.cls-2{fill:#fff;}</style><linearGradient id="linear-gradient" x1="7" y1="45" x2="83" y2="45" gradientUnits="userSpaceOnUse"><stop offset="0" stop-color="#e92c5d"/><stop offset="1" stop-color="#ff81a6"/></linearGradient></defs><title>画板 18</title><circle class="cls-1" cx="45" cy="45" r="38"/><path class="cls-2" d="M40.93,59.51,25.85,44.32a10.68,10.68,0,0,1-.56-14.69,10.21,10.21,0,0,1,7.47-3.25,10.09,10.09,0,0,1,6.67,2.51,2.27,2.27,0,0,0,3,0,10.14,10.14,0,0,1,14.14.7c3.75,4,3.49,10.59-.56,14.68l-.25.25a7.4,7.4,0,0,0-2.39-.39,7.53,7.53,0,0,0-5.51,2.42,7.8,7.8,0,0,0-1.61,7.57L40.93,59.5ZM29.45,41.92a1.37,1.37,0,0,0,0,1.93,1.34,1.34,0,0,0,1.91,0,1.37,1.37,0,0,0,0-1.93,1.34,1.34,0,0,0-1.91,0ZM34,45a1.08,1.08,0,0,0-1.53,0l-.06.06a1.1,1.1,0,0,0,0,1.54L39.56,54a1.08,1.08,0,0,0,1.53,0l.06-.06a1.1,1.1,0,0,0,0-1.54Zm24.79,2.8a5.15,5.15,0,0,1,7.2.37,5.44,5.44,0,0,1-.3,7.47l-7.92,8-7.92-8a5.44,5.44,0,0,1-.32-7.46,5.16,5.16,0,0,1,7.18-.37,1.57,1.57,0,0,0,2.07,0Zm0,0"/></svg>