<svg id="图层_1" data-name="图层 1" xmlns="http://www.w3.org/2000/svg" xmlns:xlink="http://www.w3.org/1999/xlink" viewBox="0 0 90 90"><defs><style>.cls-1{fill:url(#linear-gradient);}.cls-2{fill:#fff;stroke:#fff;stroke-miterlimit:10;}</style><linearGradient id="linear-gradient" x1="7" y1="45" x2="83" y2="45" gradientUnits="userSpaceOnUse"><stop offset="0" stop-color="#3157ff"/><stop offset="1" stop-color="#aec4ff"/></linearGradient></defs><title>画板 10</title><circle class="cls-1" cx="45" cy="45" r="38"/><path class="cls-2" d="M22.38,51.46a1.08,1.08,0,0,1-1.08-1.08V39.61a1.08,1.08,0,1,1,2.15,0V50.39a1.08,1.08,0,0,1-1.08,1.08Zm6.46,8.62A1.08,1.08,0,0,1,27.77,59V31a1.08,1.08,0,0,1,2.15,0V59a1.08,1.08,0,0,1-1.08,1.08Zm6.46,8.62a1.08,1.08,0,0,1-1.08-1.08V22.38a1.08,1.08,0,0,1,2.15,0V67.62a1.08,1.08,0,0,1-1.08,1.08Zm6.46-2.15a1.08,1.08,0,0,1-1.08-1.08V24.54a1.08,1.08,0,1,1,2.15,0V65.46a1.08,1.08,0,0,1-1.08,1.08Zm6.46-8.62a1.08,1.08,0,0,1-1.08-1.08V33.15a1.08,1.08,0,0,1,2.15,0v23.7a1.08,1.08,0,0,1-1.08,1.08Zm6.46,8.62a1.08,1.08,0,0,1-1.08-1.08V24.54a1.08,1.08,0,1,1,2.15,0V65.46a1.08,1.08,0,0,1-1.08,1.08Zm6.46-8.62a1.08,1.08,0,0,1-1.08-1.08V33.15a1.08,1.08,0,0,1,2.15,0v23.7a1.08,1.08,0,0,1-1.08,1.08Zm6.46-6.46a1.08,1.08,0,0,1-1.08-1.08V39.61a1.08,1.08,0,1,1,2.15,0V50.39a1.08,1.08,0,0,1-1.08,1.08Zm0,0"/></svg>