<svg id="图层_1" data-name="图层 1" xmlns="http://www.w3.org/2000/svg" xmlns:xlink="http://www.w3.org/1999/xlink" viewBox="0 0 90 90"><defs><style>.cls-1{fill:url(#linear-gradient);}.cls-2{fill:#fff;stroke:#fff;stroke-miterlimit:10;}</style><linearGradient id="linear-gradient" x1="7" y1="45" x2="83" y2="45" gradientUnits="userSpaceOnUse"><stop offset="0" stop-color="#c71fff"/><stop offset="1" stop-color="#ff8bff"/></linearGradient></defs><title>画板 1</title><circle class="cls-1" cx="45" cy="45" r="38"/><path class="cls-2" d="M31.65,67.6a3.09,3.09,0,0,1-3.08-3.08V50.14a3.08,3.08,0,0,1,6.16,0V64.51a3.09,3.09,0,0,1-3.08,3.08Zm0-18.49a1,1,0,0,0-1,1V64.51a1,1,0,1,0,2.05,0V50.14a1,1,0,0,0-1-1Zm0,0"/><path class="cls-2" d="M31.65,67.6c-5.33,0-11.3-4.39-11.3-10.27s6-10.27,11.3-10.27a1,1,0,0,1,0,2.05c-4.36,0-9.24,3.51-9.24,8.22s4.88,8.22,9.24,8.22a1,1,0,0,1,0,2.05Zm26.7,0a3.09,3.09,0,0,1-3.08-3.08V50.14a3.08,3.08,0,0,1,6.16,0V64.51a3.09,3.09,0,0,1-3.08,3.08Zm0-18.49a1,1,0,0,0-1,1V64.51a1,1,0,1,0,2.05,0V50.14a1,1,0,0,0-1-1Zm0,0"/><path class="cls-2" d="M58.35,67.6a1,1,0,0,1,0-2.05c4.36,0,9.24-3.51,9.24-8.22s-4.88-8.22-9.24-8.22a1,1,0,0,1,0-2.05c5.33,0,11.3,4.39,11.3,10.27s-6,10.27-11.3,10.27Zm0,0"/><path class="cls-2" d="M66.57,52.19a1,1,0,0,1-1-1V45a20.54,20.54,0,1,0-41.08,0v6.16a1,1,0,1,1-2.05,0V45A22.6,22.6,0,1,1,67.6,45v6.16a1,1,0,0,1-1,1Zm0,0"/><path class="cls-2" d="M57.58,33.94a1,1,0,0,1-.74-.32,16.39,16.39,0,0,0-23.68,0,1,1,0,0,1-1.77-.71V27.51a1,1,0,0,1,.43-.83,22.48,22.48,0,0,1,26.36,0,1,1,0,0,1,.43.83v5.41a1,1,0,0,1-1,1ZM45,26.51a18.29,18.29,0,0,1,11.55,4.06V28a20.74,20.74,0,0,0-23.11,0v2.54A18.28,18.28,0,0,1,45,26.51Zm0,0"/></svg>