<svg id="图层_1" data-name="图层 1" xmlns="http://www.w3.org/2000/svg" xmlns:xlink="http://www.w3.org/1999/xlink" viewBox="0 0 90 90"><defs><style>.cls-1{fill:url(#linear-gradient);}.cls-2{fill:#fff;}</style><linearGradient id="linear-gradient" x1="7" y1="45" x2="83" y2="45" gradientUnits="userSpaceOnUse"><stop offset="0" stop-color="#ff6349"/><stop offset="1" stop-color="#ffa9a6"/></linearGradient></defs><title>画板 17</title><circle class="cls-1" cx="45" cy="45" r="38"/><path class="cls-2" d="M60,45.1A15,15,0,1,1,45,30l.12-7.46H45A22.47,22.47,0,1,0,67.46,45.17Zm0,0"/><path class="cls-2" d="M41.29,26.27a3.73,3.73,0,0,0,7.46,0h0a3.73,3.73,0,1,0-7.46,0ZM60,45.1a3.73,3.73,0,1,0,3.73-3.73A3.73,3.73,0,0,0,60,45.1ZM53.24,30a7,7,0,1,0,7-7,7,7,0,0,0-7,7Zm0,0"/></svg>