<svg id="图层_1" data-name="图层 1" xmlns="http://www.w3.org/2000/svg" xmlns:xlink="http://www.w3.org/1999/xlink" viewBox="0 0 90 90"><defs><style>.cls-1{fill:url(#linear-gradient);}.cls-2{fill:#fff;}</style><linearGradient id="linear-gradient" x1="7" y1="45" x2="83" y2="45" gradientUnits="userSpaceOnUse"><stop offset="0" stop-color="#ff6349"/><stop offset="1" stop-color="#ffa9a6"/></linearGradient></defs><title>画板 20</title><circle class="cls-1" cx="45" cy="45" r="38"/><path class="cls-2" d="M34.47,34c-2.9,0-5.27-2.83-5.27-6.3s2.36-6.3,5.27-6.3a1.68,1.68,0,0,1,.42.05l7,1.8a1.8,1.8,0,0,1,1.28,2.18,1.75,1.75,0,0,1-2.13,1.31L34.3,25c-.78.13-1.59,1.2-1.59,2.69a2.58,2.58,0,0,0,1.59,2.69l6.76-1.73A1.75,1.75,0,0,1,43.19,30a1.8,1.8,0,0,1-1.28,2.18l-7,1.8a1.66,1.66,0,0,1-.42.05Zm0,0"/><path class="cls-2" d="M45.88,34H44.12a4.45,4.45,0,0,1-4.39-4.5V27.7a4.45,4.45,0,0,1,4.39-4.5h1.76a4.45,4.45,0,0,1,4.39,4.5v1.8A4.45,4.45,0,0,1,45.88,34Zm-1.76-7.2a.89.89,0,0,0-.88.9v1.8a.89.89,0,0,0,.88.9h1.76a.89.89,0,0,0,.88-.9V27.7a.89.89,0,0,0-.88-.9Zm0,0"/><path class="cls-2" d="M55.53,34a1.7,1.7,0,0,1-.43-.05l-7-1.8A1.8,1.8,0,0,1,46.81,30a1.74,1.74,0,0,1,2.13-1.31l6.76,1.73a2.58,2.58,0,0,0,1.59-2.69A2.58,2.58,0,0,0,55.7,25l-6.76,1.73a1.75,1.75,0,0,1-2.13-1.31,1.8,1.8,0,0,1,1.28-2.18l7-1.8a1.66,1.66,0,0,1,.42-.05c2.9,0,5.27,2.83,5.27,6.3S58.44,34,55.53,34ZM41.2,46.6H24A2.61,2.61,0,0,1,21.4,44V38A2.61,2.61,0,0,1,24,35.4H41.2A2.61,2.61,0,0,1,43.8,38v6a2.61,2.61,0,0,1-2.6,2.6Zm-.2,22H26.8A2.81,2.81,0,0,1,24,65.8V51.6a2.81,2.81,0,0,1,2.8-2.8H41a2.81,2.81,0,0,1,2.8,2.8V65.8A2.81,2.81,0,0,1,41,68.6Zm22.2,0H49a2.81,2.81,0,0,1-2.8-2.8V51.6A2.81,2.81,0,0,1,49,48.8H63.2A2.81,2.81,0,0,1,66,51.6V65.8a2.81,2.81,0,0,1-2.8,2.8Zm2.8-22H48.8A2.61,2.61,0,0,1,46.2,44V38a2.61,2.61,0,0,1,2.6-2.6H66A2.61,2.61,0,0,1,68.6,38v6A2.61,2.61,0,0,1,66,46.6Zm0,0"/></svg>