<svg id="图层_1" data-name="图层 1" xmlns="http://www.w3.org/2000/svg" xmlns:xlink="http://www.w3.org/1999/xlink" viewBox="0 0 90 90"><defs><style>.cls-1{fill:url(#linear-gradient);}.cls-2{fill:#fff;}</style><linearGradient id="linear-gradient" x1="7" y1="45" x2="83" y2="45" gradientUnits="userSpaceOnUse"><stop offset="0" stop-color="#e92c5d"/><stop offset="1" stop-color="#ff81a6"/></linearGradient></defs><title>画板 21</title><circle class="cls-1" cx="45" cy="45" r="38"/><path class="cls-2" d="M51,26.15H27A6.86,6.86,0,0,0,20.15,33V57A6.85,6.85,0,0,0,27,63.85H51A6.85,6.85,0,0,0,57.86,57V33A6.86,6.86,0,0,0,51,26.15ZM31.29,41.57a4.28,4.28,0,1,1,4.28-4.28,4.29,4.29,0,0,1-4.28,4.28Zm0,0"/><path class="cls-2" d="M69.83,34.8s0-.05,0-.08c0-.94-.43-1.93-1.71-1.71h0c-.32.1-.84.68-1.69,1.69l-5.15,5.15V50.14l5.14,5.15c1.07,1.26,1.6,1.56,1.89,1.56a1.44,1.44,0,0,0,1.54-1.56s0-.05,0-.08V34.8Zm0,0"/></svg>