<svg id="图层_1" data-name="图层 1" xmlns="http://www.w3.org/2000/svg" xmlns:xlink="http://www.w3.org/1999/xlink" viewBox="0 0 90 90"><defs><style>.cls-1{fill:url(#linear-gradient);}.cls-2{fill:#fff;}</style><linearGradient id="linear-gradient" x1="7" y1="45" x2="83" y2="45" gradientUnits="userSpaceOnUse"><stop offset="0" stop-color="#3157ff"/><stop offset="1" stop-color="#aec4ff"/></linearGradient></defs><title>画板 13</title><circle class="cls-1" cx="45" cy="45" r="38"/><path class="cls-2" d="M33.18,66a2.73,2.73,0,0,1-2-.88,3.13,3.13,0,0,1-.75-2.44l1-11.33-7.48-8.56a2.88,2.88,0,0,1,1.59-4.89l11.08-2.52,5.82-9.77a2.87,2.87,0,0,1,5.15,0l5.82,9.77,11.08,2.52a2.88,2.88,0,0,1,1.59,4.9l-7.48,8.56,1,11.33a1.81,1.81,0,0,1-1.64,2H57.8A1.8,1.8,0,0,1,56,63L54.83,50.13l7.82-8.95L51.07,38.55,45,28.34,38.92,38.55,27.34,41.18l7.82,8.95L34.09,62l10.2-4.38a1.78,1.78,0,0,1,.7-.14,1.81,1.81,0,0,1,.74,3.46L34.56,65.7a3.42,3.42,0,0,1-1.37.3Zm0,0"/><path class="cls-2" d="M65.45,42.26a2.08,2.08,0,0,0-1.16-3.58l-11.41-2.6L46.88,26a2.07,2.07,0,0,0-3.76,0l-6,10.07L25.71,38.67a2.08,2.08,0,0,0-1.16,3.58l7.71,8.82L31.2,62.75a2.08,2.08,0,0,0,3,2.21L45.4,60.18a1,1,0,0,0-.79-1.84L33.45,63.13c-.31.14-.29.15-.26-.19l1.14-12.53-8.28-9.47c-.22-.25-.23-.24.1-.31L38.4,37.84,44.84,27c.17-.3.15-.3.32,0l6.43,10.81,12.25,2.79c.34.08.32,0,.1.31l-8.28,9.47L56.8,62.93a1,1,0,0,0,2-.18L57.74,51.08Zm0,0"/></svg>