<svg id="图层_1" data-name="图层 1" xmlns="http://www.w3.org/2000/svg" xmlns:xlink="http://www.w3.org/1999/xlink" viewBox="0 0 90 90"><defs><style>.cls-1{fill:url(#linear-gradient);}.cls-2{fill:#fff;}</style><linearGradient id="linear-gradient" x1="7" y1="45" x2="83" y2="45" gradientUnits="userSpaceOnUse"><stop offset="0" stop-color="#ff6349"/><stop offset="1" stop-color="#ffa9a6"/></linearGradient></defs><title>画板 24</title><circle class="cls-1" cx="45" cy="45" r="38"/><path class="cls-2" d="M67.85,38.75v-2.3A6.86,6.86,0,0,0,61,29.56H29a6.5,6.5,0,0,0-6.89,6.64v2.3a6.83,6.83,0,0,1,5.36,6.64,6.63,6.63,0,0,1-5.36,6.64v1.79A6.86,6.86,0,0,0,29,60.44H61a6.5,6.5,0,0,0,6.89-6.64V52a6.84,6.84,0,0,1-5.36-6.64A6.63,6.63,0,0,1,67.85,38.75Zm-11,13h-23a2.3,2.3,0,0,1,0-4.6h23a2.3,2.3,0,0,1,0,4.6Zm0-8.68h-23a2.29,2.29,0,0,1-2.3-2.3,2.23,2.23,0,0,1,2.3-2h23a2.29,2.29,0,0,1,2.3,2.3A2.25,2.25,0,0,1,56.87,43.09Z"/></svg>