<svg id="图层_1" data-name="图层 1" xmlns="http://www.w3.org/2000/svg" xmlns:xlink="http://www.w3.org/1999/xlink" viewBox="0 0 90 90"><defs><style>.cls-1{fill:url(#linear-gradient);}.cls-2{fill:#fff;stroke:#fff;stroke-miterlimit:10;stroke-width:1.2px;}</style><linearGradient id="linear-gradient" x1="7" y1="45" x2="83" y2="45" gradientUnits="userSpaceOnUse"><stop offset="0" stop-color="#ff6349"/><stop offset="1" stop-color="#ffa9a6"/></linearGradient></defs><title>画板 12</title><circle class="cls-1" cx="45" cy="45" r="38"/><path class="cls-2" d="M64.31,35.11A21,21,0,0,0,25,49.54a1.42,1.42,0,1,0,2.7-.85,18.14,18.14,0,1,1,3.67,6.52,1.42,1.42,0,1,0-2.13,1.87,21,21,0,0,0,35.07-22Zm0,0"/><path class="cls-2" d="M26.88,62.81A18.16,18.16,0,0,1,41.45,45a4,4,0,1,0-.27-2.84A21,21,0,0,0,24.36,66.46,1.42,1.42,0,1,0,27.15,66a18.35,18.35,0,0,1-.27-3.15Zm0,0"/></svg>