<svg id="图层_1" data-name="图层 1" xmlns="http://www.w3.org/2000/svg" xmlns:xlink="http://www.w3.org/1999/xlink" viewBox="0 0 90 90"><defs><style>.cls-1{fill:url(#linear-gradient);}.cls-2{fill:#fff;}</style><linearGradient id="linear-gradient" x1="7" y1="45" x2="83" y2="45" gradientUnits="userSpaceOnUse"><stop offset="0" stop-color="#3157ff"/><stop offset="1" stop-color="#aec4ff"/></linearGradient></defs><title>画板 19</title><circle class="cls-1" cx="45" cy="45" r="38"/><path class="cls-2" d="M45,25.41c-12.44,0-22.61,8.1-22.61,18.09,0,4.71,2.26,9,6.22,12.43a2.59,2.59,0,0,1,.75,2.26l-1.51,6.41,9.42-3.77a1.13,1.13,0,0,1,.75-.19h.57a24.8,24.8,0,0,0,6.41.75c12.43,0,22.61-8.1,22.61-18.09,0-9.8-10.17-17.9-22.61-17.9ZM33.7,46.88a3.39,3.39,0,1,1,3.39-3.39,3.38,3.38,0,0,1-3.39,3.39Zm11.3,0a3.39,3.39,0,1,1,3.39-3.39A3.38,3.38,0,0,1,45,46.88Zm11.3,0a3.39,3.39,0,1,1,3.39-3.39,3.38,3.38,0,0,1-3.39,3.39Zm0,0"/></svg>